<svg width="307.052" height="90.9" viewBox="0 0 307.052 90.9" xmlns="http://www.w3.org/2000/svg"><g id="svgGroup" stroke-linecap="round" fill-rule="evenodd" font-size="9pt" stroke="#aa00ff" stroke-width="0.25mm" fill="#aa00ff" style="stroke:#aa00ff;stroke-width:0.25mm;fill:#aa00ff"><path d="M 81.45 52.65 L 92.4 8.85 A 15.704 15.704 0 0 1 93.42 6.049 Q 94.58 3.654 96.45 2.325 Q 99.3 0.3 102.75 0.3 A 12.907 12.907 0 0 1 106.967 1.024 A 14.666 14.666 0 0 1 107.25 1.125 Q 109.5 1.95 111.3 3.525 Q 113.1 5.1 114.225 7.35 A 10.782 10.782 0 0 1 115.34 11.798 A 12.667 12.667 0 0 1 115.35 12.3 A 12.4 12.4 0 0 1 115.212 14.087 Q 115.085 14.952 114.844 15.91 A 23.711 23.711 0 0 1 114.6 16.8 L 93.45 82.35 A 13.134 13.134 0 0 1 91.951 85.62 A 10.276 10.276 0 0 1 88.725 88.8 A 13.66 13.66 0 0 1 83.851 90.705 A 12.959 12.959 0 0 1 81.6 90.9 Q 77.7 90.9 74.325 88.725 A 11.78 11.78 0 0 1 70.021 83.734 A 15.148 15.148 0 0 1 69.45 82.35 L 58.05 49.35 L 47.4 82.35 A 13.134 13.134 0 0 1 45.901 85.62 A 10.276 10.276 0 0 1 42.675 88.8 A 13.66 13.66 0 0 1 37.801 90.705 A 12.959 12.959 0 0 1 35.55 90.9 Q 31.65 90.9 28.275 88.725 A 11.78 11.78 0 0 1 23.971 83.734 A 15.148 15.148 0 0 1 23.4 82.35 L 0.75 16.5 A 22.921 22.921 0 0 1 0.308 14.764 Q 0.135 13.942 0.059 13.218 A 10.289 10.289 0 0 1 0 12.15 A 11.171 11.171 0 0 1 0.397 9.129 A 9.726 9.726 0 0 1 1.125 7.275 Q 2.25 5.1 4.05 3.525 Q 5.85 1.95 8.1 1.125 Q 10.35 0.3 12.75 0.3 Q 16.2 0.3 19.125 2.325 A 9.184 9.184 0 0 1 21.839 5.333 Q 22.552 6.562 23.038 8.116 A 17.868 17.868 0 0 1 23.25 8.85 L 35.4 52.65 L 46.35 8.85 A 13.371 13.371 0 0 1 47.772 5.473 A 10.499 10.499 0 0 1 50.775 2.25 Q 54 0 57.75 0 A 12.208 12.208 0 0 1 64.477 2.036 A 14.861 14.861 0 0 1 64.8 2.25 A 10.8 10.8 0 0 1 68.726 7.169 A 14.346 14.346 0 0 1 69.3 8.85 L 81.45 52.65 Z M 294.6 90.6 L 252.6 90.6 A 17.506 17.506 0 0 1 247.733 89.983 Q 242.274 88.4 240.825 82.761 A 18.555 18.555 0 0 1 240.3 78.15 L 240.3 13.35 Q 240.3 3.522 247.966 1.452 A 17.809 17.809 0 0 1 252.6 0.9 L 294.6 0.9 A 14.958 14.958 0 0 1 298.476 1.375 A 10.615 10.615 0 0 1 303.75 4.575 Q 307.05 8.25 307.05 13.35 Q 307.05 18.45 303.75 22.125 A 10.815 10.815 0 0 1 297.447 25.556 A 15.853 15.853 0 0 1 294.6 25.8 L 264.9 25.8 L 264.9 33.3 L 288.6 33.3 A 14.958 14.958 0 0 1 292.476 33.775 A 10.615 10.615 0 0 1 297.75 36.975 Q 301.05 40.65 301.05 45.75 Q 301.05 50.85 297.75 54.525 A 10.815 10.815 0 0 1 291.447 57.956 A 15.853 15.853 0 0 1 288.6 58.2 L 264.9 58.2 L 264.9 65.7 L 294.6 65.7 A 14.958 14.958 0 0 1 298.476 66.175 A 10.615 10.615 0 0 1 303.75 69.375 Q 307.05 73.05 307.05 78.15 Q 307.05 83.25 303.75 86.925 A 10.815 10.815 0 0 1 297.447 90.356 A 15.853 15.853 0 0 1 294.6 90.6 Z M 185.1 52.65 L 185.1 78.15 Q 185.1 84.15 181.425 87.3 A 13.01 13.01 0 0 1 172.809 90.449 A 16.404 16.404 0 0 1 172.65 90.45 Q 167.7 90.45 164.025 87.3 Q 160.35 84.15 160.35 78.15 L 160.35 13.35 Q 160.35 7.35 164.025 4.2 Q 167.7 1.05 172.65 1.05 L 173.25 1.05 Q 179.608 1.05 182.486 6.2 A 12.892 12.892 0 0 1 182.7 6.6 L 205.2 40.65 L 205.2 13.35 Q 205.2 7.35 208.875 4.2 Q 212.55 1.05 217.5 1.05 Q 222.6 1.05 226.275 4.2 Q 229.95 7.35 229.95 13.35 L 229.95 78.15 Q 229.95 84.15 226.275 87.3 A 13.01 13.01 0 0 1 217.659 90.449 A 16.404 16.404 0 0 1 217.5 90.45 A 18.1 18.1 0 0 1 215.561 90.352 Q 214.599 90.248 213.774 90.034 A 9.579 9.579 0 0 1 213.15 89.85 A 13.683 13.683 0 0 1 211.506 89.187 A 10.171 10.171 0 0 1 210.075 88.35 Q 209.001 87.592 208.3 86.834 A 7.287 7.287 0 0 1 208.05 86.55 A 62.191 62.191 0 0 1 207.694 86.119 Q 207.259 85.587 206.948 85.18 A 20.449 20.449 0 0 1 206.85 85.05 L 185.1 52.65 Z M 150 13.35 L 150 78.15 Q 150 84.15 146.325 87.3 Q 142.65 90.45 137.7 90.45 Q 132.6 90.45 128.925 87.3 Q 125.25 84.15 125.25 78.15 L 125.25 13.35 Q 125.25 7.35 128.925 4.2 A 13.01 13.01 0 0 1 137.541 1.051 A 16.404 16.404 0 0 1 137.7 1.05 Q 142.65 1.05 146.325 4.2 Q 150 7.35 150 13.35 Z" vector-effect="non-scaling-stroke"/></g></svg>